<svg xmlns="http://www.w3.org/2000/svg" width="120" height="120" fill="none">
  <path fill="#CB0000" d="m50 75 25.95-15L50 45v30Zm57.8-39.15c.65 2.35 1.1 5.5 1.4 9.5.35 4 .5 7.45.5 10.45l.3 4.2c0 10.95-.8 19-2.2 24.15-1.25 4.5-4.15 7.4-8.65 8.65-2.35.65-6.65 1.1-13.25 1.4-6.5.35-12.45.5-17.95.5L60 95c-20.95 0-34-.8-39.15-2.2-4.5-1.25-7.4-4.15-8.65-8.65-.65-2.35-1.1-5.5-1.4-9.5-.35-4-.5-7.45-.5-10.45L10 60c0-10.95.8-19 2.2-24.15 1.25-4.5 4.15-7.4 8.65-8.65 2.35-.65 6.65-1.1 13.25-1.4 6.5-.35 12.45-.5 17.95-.5L60 25c20.95 0 34 .8 39.15 2.2 4.5 1.25 7.4 4.15 8.65 8.65Z"/>
  <path fill="#C4CAC5" d="m50 75 25.95-15L50 45v30Z"/>
</svg>
