<svg aria-hidden="true" style="position: absolute; width: 0; height: 0; overflow: hidden;" version="1.1" xmlns="http://www.w3.org/2000/svg" xmlns:xlink="http://www.w3.org/1999/xlink">
<defs>
<symbol id="icon-btn-youtube" viewBox="0 0 46 32">
<path fill="#cb0000" style="fill: var(--color1, #cb0000)" d="M18.286 22.857l11.863-6.857-11.863-6.857v13.714zM44.709 4.96c0.297 1.074 0.503 2.514 0.64 4.343 0.16 1.829 0.229 3.406 0.229 4.777l0.137 1.92c0 5.006-0.366 8.686-1.006 11.040-0.571 2.057-1.897 3.383-3.954 3.954-1.074 0.297-3.040 0.503-6.057 0.64-2.971 0.16-5.691 0.229-8.206 0.229l-3.634 0.137c-9.577 0-15.543-0.366-17.897-1.006-2.057-0.571-3.383-1.897-3.954-3.954-0.297-1.074-0.503-2.514-0.64-4.343-0.16-1.829-0.229-3.406-0.229-4.777l-0.137-1.92c0-5.006 0.366-8.686 1.006-11.040 0.571-2.057 1.897-3.383 3.954-3.954 1.074-0.297 3.040-0.503 6.057-0.64 2.971-0.16 5.691-0.229 8.206-0.229l3.634-0.137c9.577 0 15.543 0.366 17.897 1.006 2.057 0.571 3.383 1.897 3.954 3.954z"></path>
<path fill="#c4cac5" style="fill: var(--color2, #c4cac5)" d="M18.286 22.857l11.863-6.857-11.863-6.857v13.714z"></path>
</symbol>
</defs>
</svg>
